<mxfile host="app.diagrams.net" modified="2023-07-05T00:08:49.740Z" agent="Mozilla/5.0 (Windows NT 10.0; Win64; x64) AppleWebKit/537.36 (KHTML, like Gecko) Chrome/114.0.0.0 Safari/537.36" etag="WurX_YPYY2M1es2Twhzg" version="21.5.2" type="device">
  <diagram id="C5RBs43oDa-KdzZeNtuy" name="Page-1">
    <mxGraphModel dx="1434" dy="764" grid="1" gridSize="10" guides="1" tooltips="1" connect="1" arrows="1" fold="1" page="1" pageScale="1" pageWidth="827" pageHeight="1169" math="0" shadow="0">
      <root>
        <mxCell id="WIyWlLk6GJQsqaUBKTNV-0" />
        <mxCell id="WIyWlLk6GJQsqaUBKTNV-1" parent="WIyWlLk6GJQsqaUBKTNV-0" />
        <mxCell id="YB-6o7EOToLJCWz-o_yr-7" value="" style="edgeStyle=orthogonalEdgeStyle;rounded=0;orthogonalLoop=1;jettySize=auto;html=1;" edge="1" parent="WIyWlLk6GJQsqaUBKTNV-1" source="YB-6o7EOToLJCWz-o_yr-5" target="YB-6o7EOToLJCWz-o_yr-6">
          <mxGeometry relative="1" as="geometry" />
        </mxCell>
        <mxCell id="YB-6o7EOToLJCWz-o_yr-9" value="" style="edgeStyle=orthogonalEdgeStyle;rounded=0;orthogonalLoop=1;jettySize=auto;html=1;" edge="1" parent="WIyWlLk6GJQsqaUBKTNV-1" source="YB-6o7EOToLJCWz-o_yr-5" target="YB-6o7EOToLJCWz-o_yr-8">
          <mxGeometry relative="1" as="geometry" />
        </mxCell>
        <mxCell id="YB-6o7EOToLJCWz-o_yr-11" value="" style="edgeStyle=orthogonalEdgeStyle;rounded=0;orthogonalLoop=1;jettySize=auto;html=1;" edge="1" parent="WIyWlLk6GJQsqaUBKTNV-1" source="YB-6o7EOToLJCWz-o_yr-5" target="YB-6o7EOToLJCWz-o_yr-10">
          <mxGeometry relative="1" as="geometry" />
        </mxCell>
        <mxCell id="YB-6o7EOToLJCWz-o_yr-5" value="Main" style="rounded=0;whiteSpace=wrap;html=1;" vertex="1" parent="WIyWlLk6GJQsqaUBKTNV-1">
          <mxGeometry x="330" y="70" width="120" height="60" as="geometry" />
        </mxCell>
        <mxCell id="YB-6o7EOToLJCWz-o_yr-25" value="" style="edgeStyle=orthogonalEdgeStyle;rounded=0;orthogonalLoop=1;jettySize=auto;html=1;" edge="1" parent="WIyWlLk6GJQsqaUBKTNV-1" source="YB-6o7EOToLJCWz-o_yr-6" target="YB-6o7EOToLJCWz-o_yr-24">
          <mxGeometry relative="1" as="geometry" />
        </mxCell>
        <mxCell id="YB-6o7EOToLJCWz-o_yr-6" value="h2" style="rounded=0;whiteSpace=wrap;html=1;" vertex="1" parent="WIyWlLk6GJQsqaUBKTNV-1">
          <mxGeometry x="130" y="70" width="120" height="60" as="geometry" />
        </mxCell>
        <mxCell id="YB-6o7EOToLJCWz-o_yr-13" value="" style="edgeStyle=orthogonalEdgeStyle;rounded=0;orthogonalLoop=1;jettySize=auto;html=1;" edge="1" parent="WIyWlLk6GJQsqaUBKTNV-1" source="YB-6o7EOToLJCWz-o_yr-8" target="YB-6o7EOToLJCWz-o_yr-12">
          <mxGeometry relative="1" as="geometry" />
        </mxCell>
        <mxCell id="YB-6o7EOToLJCWz-o_yr-8" value="H1" style="rounded=0;whiteSpace=wrap;html=1;" vertex="1" parent="WIyWlLk6GJQsqaUBKTNV-1">
          <mxGeometry x="530" y="70" width="120" height="60" as="geometry" />
        </mxCell>
        <mxCell id="YB-6o7EOToLJCWz-o_yr-19" value="" style="edgeStyle=orthogonalEdgeStyle;rounded=0;orthogonalLoop=1;jettySize=auto;html=1;" edge="1" parent="WIyWlLk6GJQsqaUBKTNV-1" source="YB-6o7EOToLJCWz-o_yr-10" target="YB-6o7EOToLJCWz-o_yr-18">
          <mxGeometry relative="1" as="geometry" />
        </mxCell>
        <mxCell id="YB-6o7EOToLJCWz-o_yr-10" value="h3&lt;br&gt;" style="rounded=0;whiteSpace=wrap;html=1;" vertex="1" parent="WIyWlLk6GJQsqaUBKTNV-1">
          <mxGeometry x="330" y="210" width="120" height="60" as="geometry" />
        </mxCell>
        <mxCell id="YB-6o7EOToLJCWz-o_yr-15" value="" style="edgeStyle=orthogonalEdgeStyle;rounded=0;orthogonalLoop=1;jettySize=auto;html=1;" edge="1" parent="WIyWlLk6GJQsqaUBKTNV-1" source="YB-6o7EOToLJCWz-o_yr-12" target="YB-6o7EOToLJCWz-o_yr-14">
          <mxGeometry relative="1" as="geometry" />
        </mxCell>
        <mxCell id="YB-6o7EOToLJCWz-o_yr-12" value="H1" style="rounded=0;whiteSpace=wrap;html=1;" vertex="1" parent="WIyWlLk6GJQsqaUBKTNV-1">
          <mxGeometry x="530" y="210" width="120" height="60" as="geometry" />
        </mxCell>
        <mxCell id="YB-6o7EOToLJCWz-o_yr-17" value="" style="edgeStyle=orthogonalEdgeStyle;rounded=0;orthogonalLoop=1;jettySize=auto;html=1;" edge="1" parent="WIyWlLk6GJQsqaUBKTNV-1" source="YB-6o7EOToLJCWz-o_yr-14" target="YB-6o7EOToLJCWz-o_yr-16">
          <mxGeometry relative="1" as="geometry" />
        </mxCell>
        <mxCell id="YB-6o7EOToLJCWz-o_yr-14" value="H1" style="rounded=0;whiteSpace=wrap;html=1;" vertex="1" parent="WIyWlLk6GJQsqaUBKTNV-1">
          <mxGeometry x="530" y="350" width="120" height="60" as="geometry" />
        </mxCell>
        <mxCell id="YB-6o7EOToLJCWz-o_yr-16" value="H1" style="rounded=0;whiteSpace=wrap;html=1;" vertex="1" parent="WIyWlLk6GJQsqaUBKTNV-1">
          <mxGeometry x="530" y="490" width="120" height="60" as="geometry" />
        </mxCell>
        <mxCell id="YB-6o7EOToLJCWz-o_yr-21" value="" style="edgeStyle=orthogonalEdgeStyle;rounded=0;orthogonalLoop=1;jettySize=auto;html=1;" edge="1" parent="WIyWlLk6GJQsqaUBKTNV-1" source="YB-6o7EOToLJCWz-o_yr-18" target="YB-6o7EOToLJCWz-o_yr-20">
          <mxGeometry relative="1" as="geometry" />
        </mxCell>
        <mxCell id="YB-6o7EOToLJCWz-o_yr-18" value="h3&lt;br&gt;" style="rounded=0;whiteSpace=wrap;html=1;" vertex="1" parent="WIyWlLk6GJQsqaUBKTNV-1">
          <mxGeometry x="330" y="350" width="120" height="60" as="geometry" />
        </mxCell>
        <mxCell id="YB-6o7EOToLJCWz-o_yr-23" value="" style="edgeStyle=orthogonalEdgeStyle;rounded=0;orthogonalLoop=1;jettySize=auto;html=1;" edge="1" parent="WIyWlLk6GJQsqaUBKTNV-1" source="YB-6o7EOToLJCWz-o_yr-20" target="YB-6o7EOToLJCWz-o_yr-22">
          <mxGeometry relative="1" as="geometry" />
        </mxCell>
        <mxCell id="YB-6o7EOToLJCWz-o_yr-20" value="h3&lt;br&gt;" style="rounded=0;whiteSpace=wrap;html=1;" vertex="1" parent="WIyWlLk6GJQsqaUBKTNV-1">
          <mxGeometry x="330" y="490" width="120" height="60" as="geometry" />
        </mxCell>
        <mxCell id="YB-6o7EOToLJCWz-o_yr-22" value="h3&lt;br&gt;" style="rounded=0;whiteSpace=wrap;html=1;" vertex="1" parent="WIyWlLk6GJQsqaUBKTNV-1">
          <mxGeometry x="330" y="630" width="120" height="60" as="geometry" />
        </mxCell>
        <mxCell id="YB-6o7EOToLJCWz-o_yr-27" value="" style="edgeStyle=orthogonalEdgeStyle;rounded=0;orthogonalLoop=1;jettySize=auto;html=1;" edge="1" parent="WIyWlLk6GJQsqaUBKTNV-1" source="YB-6o7EOToLJCWz-o_yr-24" target="YB-6o7EOToLJCWz-o_yr-26">
          <mxGeometry relative="1" as="geometry" />
        </mxCell>
        <mxCell id="YB-6o7EOToLJCWz-o_yr-24" value="h2" style="rounded=0;whiteSpace=wrap;html=1;" vertex="1" parent="WIyWlLk6GJQsqaUBKTNV-1">
          <mxGeometry x="130" y="210" width="120" height="60" as="geometry" />
        </mxCell>
        <mxCell id="YB-6o7EOToLJCWz-o_yr-29" value="" style="edgeStyle=orthogonalEdgeStyle;rounded=0;orthogonalLoop=1;jettySize=auto;html=1;" edge="1" parent="WIyWlLk6GJQsqaUBKTNV-1" source="YB-6o7EOToLJCWz-o_yr-26" target="YB-6o7EOToLJCWz-o_yr-28">
          <mxGeometry relative="1" as="geometry" />
        </mxCell>
        <mxCell id="YB-6o7EOToLJCWz-o_yr-26" value="h2" style="rounded=0;whiteSpace=wrap;html=1;" vertex="1" parent="WIyWlLk6GJQsqaUBKTNV-1">
          <mxGeometry x="130" y="350" width="120" height="60" as="geometry" />
        </mxCell>
        <mxCell id="YB-6o7EOToLJCWz-o_yr-28" value="h2" style="rounded=0;whiteSpace=wrap;html=1;" vertex="1" parent="WIyWlLk6GJQsqaUBKTNV-1">
          <mxGeometry x="130" y="490" width="120" height="60" as="geometry" />
        </mxCell>
      </root>
    </mxGraphModel>
  </diagram>
</mxfile>
